<svg xmlns="http://www.w3.org/2000/svg" viewBox="0 0 16 16" fill="#4361ee">
  <path d="M8 0a8 8 0 1 1 0 16A8 8 0 0 1 8 0zM8 4a4 4 0 1 0 0 8 4 4 0 0 0 0-8z"/>
  <circle cx="8" cy="8" r="2" fill="#ffffff"/>
  <path d="M8 0a8 8 0 0 1 8 8c0 4.418-3.582 8-8 8s-8-3.582-8-8 3.582-8 8-8zm0 1c-3.866 0-7 3.134-7 7s3.134 7 7 7 7-3.134 7-7-3.134-7-7-7z" fill="#4361ee" opacity="0.5"/>
  <ellipse cx="8" cy="8" rx="7" ry="2.5" transform="rotate(45 8 8)" fill="none" stroke="#ffffff" stroke-width="0.8"/>
  <ellipse cx="8" cy="8" rx="7" ry="2.5" transform="rotate(-45 8 8)" fill="none" stroke="#ffffff" stroke-width="0.8"/>
</svg>
